<?xml version="1.0" standalone="no"?>
<!DOCTYPE svg PUBLIC "-//W3C//DTD SVG 20010904//EN"
 "http://www.w3.org/TR/2001/REC-SVG-20010904/DTD/svg10.dtd">
<svg version="1.0" xmlns="http://www.w3.org/2000/svg"
 width="700.000000pt" height="700.000000pt" viewBox="0 0 700.000000 700.000000"
 preserveAspectRatio="xMidYMid meet">
<metadata>
Created by potrace 1.14, written by Peter Selinger 2001-2017
</metadata>
<g transform="translate(0.000000,700.000000) scale(0.100000,-0.100000)"
fill="#000000" stroke="none">
<path d="M4840 6439 c-89 -17 -169 -68 -276 -174 -114 -112 -195 -229 -264
-378 -42 -90 -47 -97 -70 -93 -14 3 -74 16 -135 30 -222 50 -322 61 -595 61
-194 0 -282 -5 -370 -18 -168 -26 -328 -63 -468 -109 -68 -22 -125 -38 -127
-36 -2 2 -15 32 -30 68 -72 175 -177 334 -304 461 -77 77 -112 104 -175 135
-72 35 -88 39 -155 39 -122 0 -199 -52 -260 -176 -52 -108 -65 -183 -65 -374
-1 -203 20 -325 90 -535 l46 -135 -114 -115 c-443 -447 -712 -1005 -784 -1627
-20 -172 -14 -554 10 -708 112 -689 446 -1278 971 -1709 744 -611 1728 -784
2650 -466 161 56 433 191 580 288 697 462 1131 1175 1225 2007 15 132 12 451
-5 596 -60 514 -258 988 -585 1399 -101 127 -293 320 -412 414 -49 38 -88 70
-88 71 0 2 6 21 14 43 28 79 65 268 76 383 26 282 -47 537 -178 620 -37 23
-126 52 -150 48 -4 -1 -27 -5 -52 -10z m-1040 -859 c435 -55 832 -219 1195
-493 96 -73 340 -314 419 -415 293 -372 473 -823 516 -1292 24 -260 -4 -610
-67 -840 l-18 -65 -2345 0 -2345 0 -27 106 c-60 238 -83 556 -58 806 81 831
580 1565 1319 1942 305 156 554 225 956 265 66 7 364 -3 455 -14z"/>
<path d="M3870 4932 c-34 -11 -41 -64 -43 -332 -1 -184 2 -229 20 -313 41
-187 112 -292 221 -323 147 -43 630 54 1131 227 63 21 116 39 118 39 37 0
-170 206 -325 322 -248 187 -484 303 -731 359 -92 21 -347 34 -391 21z m533
-328 c88 -30 164 -117 185 -212 13 -54 4 -64 -53 -60 -46 3 -49 5 -58 38 -44
175 -285 181 -342 9 l-17 -50 -51 3 -52 3 3 39 c7 88 96 198 185 230 56 19
143 20 200 0z"/>
<path d="M2965 4920 c-301 -34 -564 -148 -873 -378 -144 -107 -338 -292 -330
-314 11 -27 453 -167 718 -226 276 -62 479 -78 556 -43 106 48 174 176 204
386 19 139 7 542 -17 566 -13 12 -182 18 -258 9z m-89 -333 c29 -14 68 -45 88
-68 38 -45 70 -124 64 -161 -3 -20 -10 -23 -51 -26 -38 -3 -48 0 -53 15 -43
125 -124 180 -225 153 -52 -14 -117 -75 -125 -119 -9 -42 -25 -53 -76 -49 -53
4 -58 21 -28 101 26 70 94 139 164 167 71 28 172 23 242 -13z"/>
<path d="M3385 4030 c-62 -21 -95 -66 -95 -129 0 -38 12 -66 70 -168 70 -123
70 -123 70 -199 l0 -76 -53 6 c-29 4 -114 22 -187 41 -74 18 -138 31 -142 29
-14 -9 -9 -70 11 -133 75 -242 340 -390 586 -326 176 46 321 200 356 378 15
75 6 86 -54 69 -108 -31 -198 -52 -259 -60 l-68 -9 0 84 0 84 67 112 c76 129
88 180 54 234 -37 59 -61 67 -200 70 -69 1 -139 -2 -156 -7z"/>
</g>
</svg>
